<?xml version="1.0" encoding="UTF-8"?>
<svg version="1.1" xmlns="http://www.w3.org/2000/svg" width="24" height="24">
<path d="M0 0 C1.32 0 2.64 0 4 0 C4 1.32 4 2.64 4 4 C4.78375 4.2475 5.5675 4.495 6.375 4.75 C9 6 9 6 10.25 7.6875 C11.24518554 10.75598875 11.63099081 13.80192035 12 17 C13.44430855 14.11138291 13.37688506 12.20352299 13 9 C10.827365 6.42714276 9.02006162 4.51003081 6 3 C6 2.34 6 1.68 6 1 C9.59346057 1.24500868 11.55416683 1.636294 14.375 3.9375 C16.69095659 8.30218741 16.809954 12.15615745 16 17 C14.125 20.125 14.125 20.125 12 22 C11.34 22 10.68 22 10 22 C10 22.66 10 23.32 10 24 C8.68 24 7.36 24 6 24 C6 22.68 6 21.36 6 20 C4.68 20 3.36 20 2 20 C2.66 20.33 3.32 20.66 4 21 C4 21.66 4 22.32 4 23 C0.40653943 22.75499132 -1.55416683 22.363706 -4.375 20.0625 C-6.69095659 15.69781259 -6.809954 11.84384255 -6 7 C-4.125 3.875 -4.125 3.875 -2 2 C-1.34 2 -0.68 2 0 2 C0 1.34 0 0.68 0 0 Z M0 4 C-2.63423211 6.71405733 -3.9070639 8.33617074 -4.4375 12.125 C-3.94910155 15.33447554 -3.32319452 15.91713595 -1 18 C-0.663389 16.22978678 -0.33082707 14.45880326 0 12.6875 C0.185625 11.70136719 0.37125 10.71523437 0.5625 9.69921875 C1.07999796 6.96218195 1.07999796 6.96218195 1 4 C0.67 4 0.34 4 0 4 Z M4 7 C3.67 7.66 3.34 8.32 3 9 C4.32 8.67 5.64 8.34 7 8 C6.01 7.67 5.02 7.34 4 7 Z " fill="#FD8D55" transform="translate(7,0)"/>
<path d="M0 0 C3.59346057 0.24500868 5.55416683 0.636294 8.375 2.9375 C10.69095659 7.30218741 10.809954 11.15615745 10 16 C8.125 19.125 8.125 19.125 6 21 C5.34 21 4.68 21 4 21 C4 21.66 4 22.32 4 23 C2.68 23 1.36 23 0 23 C0.33 21.35 0.66 19.7 1 18 C1.61875 17.896875 2.2375 17.79375 2.875 17.6875 C5.36526484 17.12474627 5.36526484 17.12474627 7 14 C7.5838196 11.0850745 7.5838196 11.0850745 7 8 C4.827365 5.42714276 3.02006162 3.51003081 0 2 C0 1.34 0 0.68 0 0 Z " fill="#283265" transform="translate(13,1)"/>
<path d="M0 0 C1.32 0 2.64 0 4 0 C3.67 1.65 3.34 3.3 3 5 C2.38125 5.103125 1.7625 5.20625 1.125 5.3125 C-1.36526484 5.87525373 -1.36526484 5.87525373 -3 9 C-3.5838196 11.9149255 -3.5838196 11.9149255 -3 15 C-0.827365 17.57285724 0.97993838 19.48996919 4 21 C4 21.66 4 22.32 4 23 C0.40653943 22.75499132 -1.55416683 22.363706 -4.375 20.0625 C-6.69095659 15.69781259 -6.809954 11.84384255 -6 7 C-4.125 3.875 -4.125 3.875 -2 2 C-1.34 2 -0.68 2 0 2 C0 1.34 0 0.68 0 0 Z " fill="#404980" transform="translate(7,0)"/>
<path d="M0 0 C2.97 0.495 2.97 0.495 6 1 C6.09765625 7.15234375 6.09765625 7.15234375 6 9 C5.67 9.33 5.34 9.66 5 10 C3.35 10 1.7 10 0 10 C0 6.7 0 3.4 0 0 Z " fill="#FE5534" transform="translate(12,9)"/>
<path d="M0 0 C1.4540625 0.0309375 1.4540625 0.0309375 2.9375 0.0625 C3.5975 1.7125 4.2575 3.3625 4.9375 5.0625 C3.9475 5.0625 2.9575 5.0625 1.9375 5.0625 C1.6075 4.4025 1.2775 3.7425 0.9375 3.0625 C-1.0425 3.7225 -3.0225 4.3825 -5.0625 5.0625 C-3.9375 0.08035714 -3.9375 0.08035714 0 0 Z " fill="#FFD255" transform="translate(12.0625,4.9375)"/>
</svg>
